<?xml version="1.0" encoding="UTF-8" standalone="no"?>
<!DOCTYPE svg PUBLIC "-//W3C//DTD SVG 20010904//EN"
"http://www.w3.org/TR/2001/REC-SVG-20010904/DTD/svg10.dtd">
<!-- Created with Inkscape (http://www.inkscape.org/) -->
<svg
   width="512.00000pt"
   height="512.00000pt"
   id="svg1245"
   sodipodi:version="0.32"
   inkscape:version="0.40"
   sodipodi:docbase="/home/thelusiv/pics/vdrift"
   sodipodi:docname="timer box 2.svg"
   xmlns="http://www.w3.org/2000/svg"
   xmlns:cc="http://web.resource.org/cc/"
   xmlns:inkscape="http://www.inkscape.org/namespaces/inkscape"
   xmlns:sodipodi="http://sodipodi.sourceforge.net/DTD/sodipodi-0.dtd"
   xmlns:rdf="http://www.w3.org/1999/02/22-rdf-syntax-ns#"
   xmlns:dc="http://purl.org/dc/elements/1.1/"
   xmlns:xlink="http://www.w3.org/1999/xlink">
  <defs
     id="defs3">
    <linearGradient
       inkscape:collect="always"
       id="linearGradient1735">
      <stop
         style="stop-color:#121212;stop-opacity:1;"
         offset="0"
         id="stop1736" />
      <stop
         style="stop-color:#121212;stop-opacity:0;"
         offset="1"
         id="stop1737" />
    </linearGradient>
    <linearGradient
       id="linearGradient2064">
      <stop
         style="stop-color:#515161;stop-opacity:1.0000000;"
         offset="0.0000000"
         id="stop2065" />
      <stop
         style="stop-color:#6e647e;stop-opacity:1.0000000;"
         offset="1.0000000"
         id="stop2066" />
    </linearGradient>
    <linearGradient
       id="linearGradient2058">
      <stop
         style="stop-color:#3e3e4e;stop-opacity:1.0000000;"
         offset="0.0000000"
         id="stop2059" />
      <stop
         style="stop-color:#515161;stop-opacity:1.0000000;"
         offset="0.079999998"
         id="stop2115" />
      <stop
         style="stop-color:#575767;stop-opacity:1.0000000;"
         offset="0.92000002"
         id="stop2116" />
      <stop
         style="stop-color:#747484;stop-opacity:1.0000000;"
         offset="1.0000000"
         id="stop2060" />
    </linearGradient>
    <linearGradient
       inkscape:collect="always"
       xlink:href="#linearGradient2058"
       id="linearGradient2061"
       gradientTransform="scale(1.591260,0.628433)"
       x1="148.81264"
       y1="128.49144"
       x2="148.81264"
       y2="324.46649"
       gradientUnits="userSpaceOnUse" />
    <linearGradient
       inkscape:collect="always"
       xlink:href="#linearGradient2064"
       id="linearGradient2063"
       gradientUnits="userSpaceOnUse"
       gradientTransform="matrix(1.539371,0.000000,0.000000,0.588075,7.810928,-277.6232)"
       x1="148.81264"
       y1="128.49144"
       x2="148.81264"
       y2="324.46649" />
    <linearGradient
       inkscape:collect="always"
       xlink:href="#linearGradient2058"
       id="linearGradient2068"
       gradientUnits="userSpaceOnUse"
       gradientTransform="scale(1.591260,0.628433)"
       x1="148.81264"
       y1="128.49144"
       x2="148.81264"
       y2="324.46649" />
    <linearGradient
       inkscape:collect="always"
       xlink:href="#linearGradient2064"
       id="linearGradient2070"
       gradientUnits="userSpaceOnUse"
       gradientTransform="matrix(1.539371,0.000000,0.000000,0.588075,7.810928,-277.6232)"
       x1="148.81264"
       y1="128.49144"
       x2="148.81264"
       y2="324.46649" />
    <linearGradient
       inkscape:collect="always"
       xlink:href="#linearGradient2058"
       id="linearGradient2072"
       gradientUnits="userSpaceOnUse"
       gradientTransform="scale(1.591260,0.628433)"
       x1="148.81264"
       y1="128.49144"
       x2="148.81264"
       y2="324.46649" />
    <linearGradient
       inkscape:collect="always"
       xlink:href="#linearGradient2058"
       id="linearGradient2095"
       gradientUnits="userSpaceOnUse"
       gradientTransform="scale(1.591260,0.628433)"
       x1="151.61626"
       y1="125.95126"
       x2="151.61626"
       y2="320.43228" />
    <linearGradient
       inkscape:collect="always"
       xlink:href="#linearGradient2058"
       id="linearGradient2102"
       gradientUnits="userSpaceOnUse"
       gradientTransform="scale(1.591260,0.628433)"
       x1="148.81264"
       y1="128.49144"
       x2="148.81264"
       y2="324.46649" />
    <linearGradient
       inkscape:collect="always"
       xlink:href="#linearGradient2058"
       id="linearGradient1105"
       gradientUnits="userSpaceOnUse"
       gradientTransform="matrix(0.654508,0.000000,0.000000,0.137695,182.1099,81.61694)"
       x1="151.61626"
       y1="125.95126"
       x2="151.61626"
       y2="320.43228" />
    <linearGradient
       inkscape:collect="always"
       xlink:href="#linearGradient2058"
       id="linearGradient1110"
       gradientUnits="userSpaceOnUse"
       gradientTransform="matrix(0.654508,0.000000,0.000000,0.137695,305.0060,81.61694)"
       x1="151.61626"
       y1="125.95126"
       x2="151.61626"
       y2="320.43228" />
    <linearGradient
       inkscape:collect="always"
       xlink:href="#linearGradient1735"
       id="linearGradient1738"
       gradientTransform="matrix(2.663729,0.000000,0.000000,0.339916,-5.013834,12.53596)"
       x1="102.32538"
       y1="371.72006"
       x2="102.32539"
       y2="492.51892"
       gradientUnits="userSpaceOnUse" />
  </defs>
  <sodipodi:namedview
     id="base"
     pagecolor="#ffffff"
     bordercolor="#666666"
     borderopacity="1.0"
     inkscape:pageopacity="0.0"
     inkscape:pageshadow="2"
     inkscape:zoom="1.4597513"
     inkscape:cx="210.96042"
     inkscape:cy="351.14645"
     inkscape:current-layer="svg1245"
     showguides="true"
     inkscape:guide-bbox="true"
     inkscape:guide-points="true"
     inkscape:window-width="871"
     inkscape:window-height="1001"
     inkscape:window-x="295"
     inkscape:window-y="0">
    <sodipodi:guide
       orientation="vertical"
       position="76.704359"
       id="guide1106" />
    <sodipodi:guide
       orientation="vertical"
       position="174.71548"
       id="guide1107" />
    <sodipodi:guide
       orientation="vertical"
       position="272.99171"
       id="guide1111" />
    <sodipodi:guide
       orientation="horizontal"
       position="434.08495"
       id="guide1112" />
  </sodipodi:namedview>
  <metadata
     id="metadata4">
    <rdf:RDF
       id="RDF5">
      <cc:Work
         rdf:about=""
         id="Work6">
        <dc:format
           id="format7">image/svg+xml</dc:format>
        <dc:type
           id="type9"
           rdf:resource="http://purl.org/dc/dcmitype/StillImage" />
      </cc:Work>
    </rdf:RDF>
  </metadata>
  <rect
     style="color:#000000;fill:url(#linearGradient1738);fill-opacity:1.0000000;fill-rule:nonzero;stroke:none;stroke-width:2.5625000;stroke-linecap:round;stroke-linejoin:miter;stroke-miterlimit:4.0000000;stroke-dashoffset:0.0000000;stroke-opacity:1.0000000;marker:none;marker-start:none;marker-mid:none;marker-end:none;visibility:visible;display:block"
     id="rect1113"
     width="384.34290"
     height="49.045727"
     x="78.753204"
     y="134.32719" />
  <g
     inkscape:label="Layer 1"
     inkscape:groupmode="layer"
     id="layer1" />
  <path
     transform="matrix(0.944487,0.000000,0.000000,-0.838590,4.258878,250.3753)"
     style="color:#000000;fill:url(#linearGradient2068);fill-opacity:1.0000000;fill-rule:nonzero;stroke:none;stroke-width:2.5625000;stroke-linecap:round;stroke-linejoin:miter;stroke-miterlimit:4.0000000;stroke-dashoffset:0.0000000;stroke-opacity:1.0000000;marker:none;marker-start:none;marker-mid:none;marker-end:none;visibility:visible;display:block"
     d="M 83.156250,132.23482 C 80.719973,132.48155 78.868174,134.53610 78.875000,136.98482 L 78.875000,205.00000 C 78.881024,207.62085 81.004147,209.74398 83.625000,209.75000 L 481.05449,209.75000 C 483.67534,209.74398 485.79847,207.62085 485.80449,205.00000 L 485.80449,136.98482 C 485.79847,134.36397 483.67534,132.24085 481.05449,132.23482 L 83.625000,132.23482 C 83.468845,132.22713 83.312405,132.22713 83.156250,132.23482 z "
     id="path2067"
     sodipodi:nodetypes="cccccccccc" />
  <path
     transform="matrix(0.951203,0.000000,0.000000,-0.840044,2.649245,9.627634)"
     style="color:#000000;fill:url(#linearGradient2070);fill-opacity:1.0000000;fill-rule:nonzero;stroke:none;stroke-width:2.5625000;stroke-linecap:round;stroke-linejoin:miter;stroke-miterlimit:4.0000000;stroke-dashoffset:0.0000000;stroke-opacity:1.0000000;marker:none;marker-start:none;marker-mid:none;marker-end:none;visibility:visible;display:block"
     d="M 88.687500,-151.29812 C 85.754974,-151.29453 83.378586,-148.91815 83.375000,-145.98562 L 83.375000,-85.781250 C 83.378586,-82.848724 85.754974,-80.472336 88.687500,-80.468750 L 475.99303,-80.468750 C 478.92556,-80.472336 481.30194,-82.848724 481.30553,-85.781250 L 481.30553,-145.98562 C 481.30194,-148.91815 478.92556,-151.29453 475.99303,-151.29812 L 88.687500,-151.29812 z "
     id="path2069"
     sodipodi:nodetypes="ccccccccc" />
  <path
     style="font-size:15.000000;font-style:italic;font-variant:normal;font-weight:bold;font-stretch:normal;fill:#000000;fill-opacity:1.0000000;stroke:none;stroke-width:1.0000000pt;stroke-linecap:butt;stroke-linejoin:miter;stroke-opacity:1.0000000;font-family:Forgotten Futurist;text-anchor:start;writing-mode:lr"
     d="M 99.840444,95.023812 L 95.880444,95.023812 L 97.545444,85.528812 L 99.000444,85.528812 L 97.605444,93.433812 L 100.11044,93.433812 L 99.840444,95.023812 M 105.18606,93.448812 L 105.39606,92.278812 L 103.41606,92.278812 C 103.23606,92.288815 103.09106,92.363815 102.98106,92.503812 C 102.87106,92.633815 102.81606,92.823815 102.81606,93.073812 C 102.81606,93.323814 102.94606,93.448814 103.20606,93.448812 L 105.18606,93.448812 M 102.98106,95.023812 C 101.90106,95.023812 101.36106,94.513813 101.36106,93.493812 C 101.36106,93.393814 101.36606,93.288814 101.37606,93.178812 C 101.38606,93.068814 101.40106,92.953814 101.42106,92.833812 L 101.43606,92.788812 C 101.67606,91.398816 102.47106,90.703817 103.82106,90.703812 L 105.65106,90.703812 L 105.71106,90.373812 C 105.72106,90.323817 105.72606,90.278817 105.72606,90.238812 C 105.73606,90.198817 105.74106,90.158817 105.74106,90.118812 C 105.74106,89.738818 105.53106,89.548818 105.11106,89.548812 L 102.35106,89.548812 L 102.62106,87.973812 L 105.36606,87.988812 C 106.61606,88.028819 107.24106,88.598819 107.24106,89.698812 C 107.24106,89.808818 107.23606,89.918817 107.22606,90.028812 C 107.21606,90.128817 107.20106,90.238817 107.18106,90.358812 L 106.37106,95.023812 L 102.98106,95.023812 M 109.79411,89.548812 L 109.10411,93.433812 L 110.72411,93.448812 C 111.20411,93.438814 111.48911,93.203814 111.57911,92.743812 L 112.01411,90.313812 C 112.02411,90.263817 112.02910,90.223817 112.02911,90.193812 C 112.02910,90.153817 112.02910,90.113817 112.02911,90.073812 C 112.02910,89.723818 111.85411,89.548818 111.50411,89.548812 L 109.79411,89.548812 M 108.83411,95.008812 L 108.41411,97.393812 L 106.95911,97.393812 L 108.62411,87.958812 L 111.83411,87.958812 C 112.40410,87.958819 112.83410,88.103819 113.12411,88.393812 C 113.41410,88.673819 113.55910,89.083818 113.55911,89.623812 C 113.55910,89.853818 113.53910,90.083817 113.49911,90.313812 L 113.07911,92.683812 C 112.80910,94.233813 111.94411,95.008812 110.48411,95.008812 L 108.83411,95.008812 M 119.71989,95.023812 L 119.26989,95.023812 C 117.93989,95.023812 117.27489,94.438813 117.27489,93.268812 C 117.27489,93.158814 117.27989,93.043814 117.28989,92.923812 C 117.30989,92.803815 117.32989,92.673815 117.34989,92.533812 L 118.56489,85.588812 L 120.00489,85.588812 L 119.58489,87.973812 L 120.94989,87.973812 L 120.67989,89.548812 L 119.31489,89.548812 L 118.77489,92.563812 C 118.76489,92.603815 118.75989,92.653815 118.75989,92.713812 C 118.75989,93.203814 119.16989,93.448814 119.98989,93.448812 L 119.71989,95.023812 M 124.02724,87.073812 L 122.55724,87.073812 L 122.82724,85.573812 L 124.29724,85.573812 L 124.02724,87.073812 M 122.63224,95.023812 L 121.16224,95.023812 L 122.40724,87.958812 L 123.87724,87.958812 L 122.63224,95.023812 M 133.52059,95.023812 L 132.08059,95.023812 L 132.86059,90.553812 C 132.87059,90.483817 132.87559,90.423817 132.87559,90.373812 C 132.88559,90.313817 132.89059,90.258817 132.89059,90.208812 C 132.89059,89.768818 132.69559,89.548818 132.30559,89.548812 L 131.48059,89.548812 C 130.92059,89.548818 130.58559,89.858818 130.47559,90.478812 L 129.68059,95.023812 L 128.22559,95.023812 L 129.02059,90.463812 C 129.03059,90.413817 129.03559,90.363817 129.03559,90.313812 C 129.04559,90.263817 129.05059,90.213817 129.05059,90.163812 C 129.05059,89.753818 128.85059,89.548818 128.45059,89.548812 L 127.71559,89.548812 C 127.13559,89.548818 126.77059,89.908817 126.62059,90.628812 L 125.85559,95.023812 L 124.40059,95.023812 L 125.63059,87.973812 L 127.08559,87.973812 L 126.98059,88.558812 C 127.32059,88.168819 127.69059,87.973819 128.09059,87.973812 L 129.09559,87.973812 C 129.73559,87.973819 130.14559,88.208819 130.32559,88.678812 C 130.71559,88.208819 131.19559,87.973819 131.76559,87.973812 L 132.87559,87.973812 C 133.89558,87.973819 134.40558,88.508819 134.40559,89.578812 C 134.40558,89.708818 134.39558,89.843818 134.37559,89.983812 C 134.36558,90.113817 134.35058,90.253817 134.33059,90.403812 L 133.52059,95.023812 M 136.74161,90.703812 L 139.17161,90.703812 L 139.26161,90.178812 C 139.27160,90.138817 139.27660,90.103817 139.27661,90.073812 C 139.27660,90.033817 139.27660,89.998817 139.27661,89.968812 C 139.27660,89.688818 139.14661,89.548818 138.88661,89.548812 L 137.55161,89.548812 C 137.16161,89.548818 136.93161,89.743818 136.86161,90.133812 L 136.84661,90.223812 L 136.74161,90.703812 M 140.32661,92.278812 L 136.47161,92.278812 L 136.38161,92.758812 C 136.37161,92.798815 136.36661,92.838815 136.36661,92.878812 C 136.36661,92.908814 136.36661,92.938814 136.36661,92.968812 C 136.36661,93.278814 136.52161,93.433814 136.83161,93.433812 L 139.90661,93.433812 L 139.63661,95.023812 L 136.56161,95.023812 C 135.44161,95.023812 134.88161,94.513813 134.88161,93.493812 C 134.88161,93.393814 134.88661,93.293814 134.89661,93.193812 C 134.90661,93.083814 134.92161,92.968814 134.94161,92.848812 L 135.39161,90.223812 C 135.65161,88.723819 136.48161,87.968819 137.88161,87.958812 L 139.14161,87.973812 C 139.68160,87.983819 140.08160,88.113819 140.34161,88.363812 C 140.61160,88.603819 140.74660,88.978818 140.74661,89.488812 C 140.74660,89.718818 140.72660,89.948817 140.68661,90.178812 L 140.32661,92.278812 M 142.31903,94.258812 C 142.20903,94.798813 141.94903,95.068812 141.53903,95.068812 C 141.18903,95.068812 141.01403,94.888813 141.01403,94.528812 C 141.01403,94.158813 141.08903,93.883814 141.23903,93.703812 C 141.39903,93.523814 141.59403,93.433814 141.82403,93.433812 C 142.17403,93.433814 142.34903,93.613814 142.34903,93.973812 C 142.34903,94.013813 142.34403,94.058813 142.33403,94.108812 C 142.33403,94.158813 142.32903,94.208813 142.31903,94.258812 M 143.02403,90.313812 C 142.92403,90.863817 142.65903,91.138816 142.22903,91.138812 C 141.88903,91.138816 141.71903,90.963816 141.71903,90.613812 C 141.71903,90.233817 141.79403,89.953817 141.94403,89.773812 C 142.10403,89.583818 142.29903,89.488818 142.52903,89.488812 C 142.87903,89.488818 143.05403,89.673818 143.05403,90.043812 C 143.05403,90.083817 143.04903,90.128817 143.03903,90.178812 C 143.03903,90.218817 143.03403,90.263817 143.02403,90.313812"
     id="text2079" />
  <path
     transform="matrix(0.411314,0.000000,0.000000,0.219108,59.55449,81.61694)"
     style="color:#000000;fill:url(#linearGradient2095);fill-opacity:1.0000000;fill-rule:nonzero;stroke:none;stroke-width:2.5625000;stroke-linecap:round;stroke-linejoin:miter;stroke-miterlimit:4.0000000;stroke-dashoffset:0.0000000;stroke-opacity:1.0000000;marker:none;marker-start:none;marker-mid:none;marker-end:none;visibility:visible;display:block"
     d="M 83.625000,74.937500 C 81.792569,74.934954 80.034458,75.661757 78.738733,76.957483 C 77.443007,78.253208 76.716204,80.011319 76.718750,81.843750 L 76.718750,205.00000 C 76.716204,206.83243 77.443007,208.59054 78.738733,209.88627 C 80.034458,211.18199 81.792569,211.90880 83.625000,211.90625 L 348.62546,211.90625 C 350.45789,211.90880 352.21600,211.18199 353.51173,209.88627 C 354.80745,208.59054 355.53426,206.83243 355.53171,205.00000 L 355.53171,81.843750 C 355.53426,80.011319 354.80745,78.253208 353.51173,76.957483 C 352.21600,75.661757 350.45789,74.934954 348.62546,74.937500 L 83.625000,74.937500 z "
     id="path2090"
     sodipodi:nodetypes="ccccccccccccc" />
  <path
     transform="matrix(0.397863,0.000000,0.000000,0.183903,62.77669,86.66598)"
     style="color:#000000;fill:#a5a5a5;fill-opacity:1.0000000;fill-rule:nonzero;stroke:none;stroke-width:2.5625000;stroke-linecap:round;stroke-linejoin:miter;stroke-miterlimit:4.0000000;stroke-dashoffset:0.0000000;stroke-opacity:1.0000000;marker:none;marker-start:none;marker-mid:none;marker-end:none;visibility:visible;display:block"
     d="M 83.625000,76.781250 C 80.829741,76.782896 78.564146,79.048491 78.562500,81.843750 L 78.562500,205.00000 C 78.564146,207.79526 80.829741,210.06085 83.625000,210.06250 L 347.40589,210.06250 C 350.20115,210.06085 352.46674,207.79526 352.46839,205.00000 L 352.46839,81.843750 C 352.46674,79.048491 350.20115,76.782896 347.40589,76.781250 L 83.625000,76.781250 z "
     id="path2091"
     sodipodi:nodetypes="ccccccccc" />
  <path
     style="font-size:15.000000;font-style:italic;font-variant:normal;font-weight:bold;font-stretch:normal;fill:#000000;fill-opacity:1.0000000;stroke:none;stroke-width:1.0000000pt;stroke-linecap:butt;stroke-linejoin:miter;stroke-opacity:1.0000000;font-family:Forgotten Futurist;text-anchor:start;writing-mode:lr"
     d="M 222.35435,95.023812 L 218.39435,95.023812 L 220.05935,85.528812 L 221.51435,85.528812 L 220.11935,93.433812 L 222.62435,93.433812 L 222.35435,95.023812 M 227.69997,93.448812 L 227.90997,92.278812 L 225.92997,92.278812 C 225.74997,92.288815 225.60497,92.363815 225.49497,92.503812 C 225.38497,92.633815 225.32997,92.823815 225.32997,93.073812 C 225.32997,93.323814 225.45997,93.448814 225.71997,93.448812 L 227.69997,93.448812 M 225.49497,95.023812 C 224.41497,95.023812 223.87497,94.513813 223.87497,93.493812 C 223.87497,93.393814 223.87997,93.288814 223.88997,93.178812 C 223.89997,93.068814 223.91497,92.953814 223.93497,92.833812 L 223.94997,92.788812 C 224.18997,91.398816 224.98497,90.703817 226.33497,90.703812 L 228.16497,90.703812 L 228.22497,90.373812 C 228.23497,90.323817 228.23997,90.278817 228.23997,90.238812 C 228.24997,90.198817 228.25497,90.158817 228.25497,90.118812 C 228.25497,89.738818 228.04497,89.548818 227.62497,89.548812 L 224.86497,89.548812 L 225.13497,87.973812 L 227.87997,87.988812 C 229.12997,88.028819 229.75497,88.598819 229.75497,89.698812 C 229.75497,89.808818 229.74997,89.918817 229.73997,90.028812 C 229.72997,90.128817 229.71497,90.238817 229.69497,90.358812 L 228.88497,95.023812 L 225.49497,95.023812 M 230.81904,95.023812 L 231.08904,93.448812 L 234.25404,93.448812 C 234.48403,93.448814 234.67403,93.393814 234.82404,93.283812 C 234.98403,93.163814 235.06403,92.988814 235.06404,92.758812 C 235.06403,92.458815 234.87403,92.308815 234.49404,92.308812 L 233.09904,92.308812 C 231.97903,92.308815 231.41903,91.803816 231.41904,90.793812 C 231.41903,89.873818 231.64403,89.178818 232.09404,88.708812 C 232.55403,88.228819 233.14403,87.978819 233.86404,87.958812 L 237.02904,87.958812 L 236.74404,89.548812 L 233.47404,89.548812 C 233.30403,89.548818 233.15903,89.613818 233.03904,89.743812 C 232.92903,89.863818 232.87403,90.043817 232.87404,90.283812 C 232.87403,90.583817 233.05403,90.733817 233.41404,90.733812 L 234.74904,90.733812 C 235.93903,90.733817 236.53403,91.223816 236.53404,92.203812 C 236.53403,92.373815 236.51903,92.553815 236.48904,92.743812 L 236.47404,92.818812 C 236.21403,94.288813 235.39403,95.023812 234.01404,95.023812 L 230.81904,95.023812 M 239.94865,95.023812 L 239.49865,95.023812 C 238.16864,95.023812 237.50364,94.438813 237.50365,93.268812 C 237.50364,93.158814 237.50864,93.043814 237.51865,92.923812 C 237.53864,92.803815 237.55864,92.673815 237.57865,92.533812 L 238.79365,85.588812 L 240.23365,85.588812 L 239.81365,87.973812 L 241.17865,87.973812 L 240.90865,89.548812 L 239.54365,89.548812 L 239.00365,92.563812 C 238.99364,92.603815 238.98864,92.653815 238.98865,92.713812 C 238.98864,93.203814 239.39864,93.448814 240.21865,93.448812 L 239.94865,95.023812 M 245.63060,95.023812 L 244.16060,95.023812 L 245.81060,85.588812 L 247.28060,85.588812 L 245.63060,95.023812 M 250.81521,93.448812 L 251.02521,92.278812 L 249.04521,92.278812 C 248.86521,92.288815 248.72021,92.363815 248.61021,92.503812 C 248.50021,92.633815 248.44521,92.823815 248.44521,93.073812 C 248.44521,93.323814 248.57521,93.448814 248.83521,93.448812 L 250.81521,93.448812 M 248.61021,95.023812 C 247.53021,95.023812 246.99021,94.513813 246.99021,93.493812 C 246.99021,93.393814 246.99521,93.288814 247.00521,93.178812 C 247.01521,93.068814 247.03021,92.953814 247.05021,92.833812 L 247.06521,92.788812 C 247.30521,91.398816 248.10021,90.703817 249.45021,90.703812 L 251.28021,90.703812 L 251.34021,90.373812 C 251.35020,90.323817 251.35520,90.278817 251.35521,90.238812 C 251.36520,90.198817 251.37020,90.158817 251.37021,90.118812 C 251.37020,89.738818 251.16020,89.548818 250.74021,89.548812 L 247.98021,89.548812 L 248.25021,87.973812 L 250.99521,87.988812 C 252.24520,88.028819 252.87020,88.598819 252.87021,89.698812 C 252.87020,89.808818 252.86520,89.918817 252.85521,90.028812 C 252.84520,90.128817 252.83020,90.238817 252.81021,90.358812 L 252.00021,95.023812 L 248.61021,95.023812 M 255.42325,89.548812 L 254.73325,93.433812 L 256.35325,93.448812 C 256.83325,93.438814 257.11825,93.203814 257.20825,92.743812 L 257.64325,90.313812 C 257.65325,90.263817 257.65825,90.223817 257.65825,90.193812 C 257.65825,90.153817 257.65825,90.113817 257.65825,90.073812 C 257.65825,89.723818 257.48325,89.548818 257.13325,89.548812 L 255.42325,89.548812 M 254.46325,95.008812 L 254.04325,97.393812 L 252.58825,97.393812 L 254.25325,87.958812 L 257.46325,87.958812 C 258.03325,87.958819 258.46325,88.103819 258.75325,88.393812 C 259.04325,88.673819 259.18825,89.083818 259.18825,89.623812 C 259.18825,89.853818 259.16825,90.083817 259.12825,90.313812 L 258.70825,92.683812 C 258.43825,94.233813 257.57325,95.008812 256.11325,95.008812 L 254.46325,95.008812 M 260.73138,94.258812 C 260.62138,94.798813 260.36138,95.068812 259.95138,95.068812 C 259.60138,95.068812 259.42638,94.888813 259.42638,94.528812 C 259.42638,94.158813 259.50138,93.883814 259.65138,93.703812 C 259.81138,93.523814 260.00638,93.433814 260.23638,93.433812 C 260.58638,93.433814 260.76138,93.613814 260.76138,93.973812 C 260.76138,94.013813 260.75638,94.058813 260.74638,94.108812 C 260.74638,94.158813 260.74138,94.208813 260.73138,94.258812 M 261.43638,90.313812 C 261.33638,90.863817 261.07138,91.138816 260.64138,91.138812 C 260.30138,91.138816 260.13138,90.963816 260.13138,90.613812 C 260.13138,90.233817 260.20638,89.953817 260.35638,89.773812 C 260.51638,89.583818 260.71138,89.488818 260.94138,89.488812 C 261.29138,89.488818 261.46638,89.673818 261.46638,90.043812 C 261.46638,90.083817 261.46138,90.128817 261.45138,90.178812 C 261.45138,90.218817 261.44638,90.263817 261.43638,90.313812"
     id="text2092" />
  <path
     style="font-size:15.000000;font-style:italic;font-variant:normal;font-weight:bold;font-stretch:normal;fill:#000000;fill-opacity:1.0000000;stroke:none;stroke-width:1.0000000pt;stroke-linecap:butt;stroke-linejoin:miter;stroke-opacity:1.0000000;font-family:Forgotten Futurist;text-anchor:start;writing-mode:lr"
     d="M 344.08964,87.163813 L 343.66964,89.503813 L 345.06464,89.503813 C 345.44463,89.503823 345.75963,89.368823 346.00964,89.098813 C 346.26963,88.818823 346.39963,88.408823 346.39964,87.868813 C 346.39963,87.398823 346.20963,87.163823 345.82964,87.163813 L 344.08964,87.163813 M 343.39964,91.078813 L 342.97964,93.433813 L 344.73464,93.433813 C 344.97463,93.433813 345.19463,93.308813 345.39464,93.058813 C 345.59463,92.808813 345.69463,92.433813 345.69464,91.933813 C 345.69463,91.363813 345.39463,91.078813 344.79464,91.078813 L 343.39964,91.078813 M 347.77964,88.468813 C 347.62963,89.348823 347.22463,89.963813 346.56464,90.313813 C 346.97463,90.573813 347.17963,90.998813 347.17964,91.588813 C 347.17963,91.668813 347.17463,91.753813 347.16464,91.843813 C 347.16463,91.933813 347.15463,92.028813 347.13464,92.128813 L 347.07464,92.413813 C 346.77463,94.153813 345.83463,95.023813 344.25464,95.023813 L 341.23964,95.023813 L 342.88964,85.588813 L 345.90464,85.588813 C 347.24463,85.588823 347.91463,86.173823 347.91464,87.343813 C 347.91463,87.453823 347.90963,87.563823 347.89964,87.673813 C 347.88963,87.783823 347.87463,87.898823 347.85464,88.018813 L 347.77964,88.468813 M 350.56237,90.703813 L 352.99237,90.703813 L 353.08237,90.178813 C 353.09237,90.138813 353.09737,90.103813 353.09737,90.073813 C 353.09737,90.033813 353.09737,89.998813 353.09737,89.968813 C 353.09737,89.688823 352.96737,89.548823 352.70737,89.548813 L 351.37237,89.548813 C 350.98237,89.548823 350.75237,89.743823 350.68237,90.133813 L 350.66737,90.223813 L 350.56237,90.703813 M 354.14737,92.278813 L 350.29237,92.278813 L 350.20237,92.758813 C 350.19237,92.798813 350.18737,92.838813 350.18737,92.878813 C 350.18737,92.908813 350.18737,92.938813 350.18737,92.968813 C 350.18737,93.278813 350.34237,93.433813 350.65237,93.433813 L 353.72737,93.433813 L 353.45737,95.023813 L 350.38237,95.023813 C 349.26237,95.023813 348.70237,94.513813 348.70237,93.493813 C 348.70237,93.393813 348.70737,93.293813 348.71737,93.193813 C 348.72737,93.083813 348.74237,92.968813 348.76237,92.848813 L 349.21237,90.223813 C 349.47237,88.723823 350.30237,87.968823 351.70237,87.958813 L 352.96237,87.973813 C 353.50237,87.983823 353.90237,88.113823 354.16237,88.363813 C 354.43237,88.603823 354.56737,88.978823 354.56737,89.488813 C 354.56737,89.718823 354.54737,89.948813 354.50737,90.178813 L 354.14737,92.278813 M 355.55362,95.023813 L 355.82362,93.448813 L 358.98862,93.448813 C 359.21862,93.448813 359.40862,93.393813 359.55862,93.283813 C 359.71862,93.163813 359.79862,92.988813 359.79862,92.758813 C 359.79862,92.458813 359.60862,92.308813 359.22862,92.308813 L 357.83362,92.308813 C 356.71362,92.308813 356.15362,91.803813 356.15362,90.793813 C 356.15362,89.873823 356.37862,89.178823 356.82862,88.708813 C 357.28862,88.228823 357.87862,87.978823 358.59862,87.958813 L 361.76362,87.958813 L 361.47862,89.548813 L 358.20862,89.548813 C 358.03862,89.548823 357.89362,89.613823 357.77362,89.743813 C 357.66362,89.863823 357.60862,90.043813 357.60862,90.283813 C 357.60862,90.583813 357.78862,90.733813 358.14862,90.733813 L 359.48362,90.733813 C 360.67362,90.733813 361.26862,91.223813 361.26862,92.203813 C 361.26862,92.373813 361.25362,92.553813 361.22362,92.743813 L 361.20862,92.818813 C 360.94862,94.288813 360.12862,95.023813 358.74862,95.023813 L 355.55362,95.023813 M 364.68323,95.023813 L 364.23323,95.023813 C 362.90323,95.023813 362.23823,94.438813 362.23823,93.268813 C 362.23823,93.158813 362.24323,93.043813 362.25323,92.923813 C 362.27323,92.803813 362.29323,92.673813 362.31323,92.533813 L 363.52823,85.588813 L 364.96823,85.588813 L 364.54823,87.973813 L 365.91323,87.973813 L 365.64323,89.548813 L 364.27823,89.548813 L 363.73823,92.563813 C 363.72823,92.603813 363.72323,92.653813 363.72323,92.713813 C 363.72323,93.203813 364.13323,93.448813 364.95323,93.448813 L 364.68323,95.023813 M 370.36519,95.023813 L 368.89519,95.023813 L 370.54519,85.588813 L 372.01519,85.588813 L 370.36519,95.023813 M 375.54979,93.448813 L 375.75979,92.278813 L 373.77979,92.278813 C 373.59979,92.288813 373.45479,92.363813 373.34479,92.503813 C 373.23479,92.633813 373.17979,92.823813 373.17979,93.073813 C 373.17979,93.323813 373.30979,93.448813 373.56979,93.448813 L 375.54979,93.448813 M 373.34479,95.023813 C 372.26479,95.023813 371.72479,94.513813 371.72479,93.493813 C 371.72479,93.393813 371.72979,93.288813 371.73979,93.178813 C 371.74979,93.068813 371.76479,92.953813 371.78479,92.833813 L 371.79979,92.788813 C 372.03979,91.398813 372.83479,90.703813 374.18479,90.703813 L 376.01479,90.703813 L 376.07479,90.373813 C 376.08479,90.323813 376.08979,90.278813 376.08979,90.238813 C 376.09979,90.198813 376.10479,90.158813 376.10479,90.118813 C 376.10479,89.738823 375.89479,89.548823 375.47479,89.548813 L 372.71479,89.548813 L 372.98479,87.973813 L 375.72979,87.988813 C 376.97979,88.028823 377.60479,88.598823 377.60479,89.698813 C 377.60479,89.808823 377.59979,89.918813 377.58979,90.028813 C 377.57979,90.128813 377.56479,90.238813 377.54479,90.358813 L 376.73479,95.023813 L 373.34479,95.023813 M 380.15784,89.548813 L 379.46784,93.433813 L 381.08784,93.448813 C 381.56784,93.438813 381.85284,93.203813 381.94284,92.743813 L 382.37784,90.313813 C 382.38784,90.263813 382.39284,90.223813 382.39284,90.193813 C 382.39284,90.153813 382.39284,90.113813 382.39284,90.073813 C 382.39284,89.723823 382.21784,89.548823 381.86784,89.548813 L 380.15784,89.548813 M 379.19784,95.008813 L 378.77784,97.393813 L 377.32284,97.393813 L 378.98784,87.958813 L 382.19784,87.958813 C 382.76784,87.958823 383.19784,88.103823 383.48784,88.393813 C 383.77783,88.673823 383.92283,89.083823 383.92284,89.623813 C 383.92283,89.853823 383.90283,90.083813 383.86284,90.313813 L 383.44284,92.683813 C 383.17284,94.233813 382.30784,95.008813 380.84784,95.008813 L 379.19784,95.008813 M 385.46597,94.258813 C 385.35596,94.798813 385.09596,95.068813 384.68597,95.068813 C 384.33597,95.068813 384.16097,94.888813 384.16097,94.528813 C 384.16097,94.158813 384.23597,93.883813 384.38597,93.703813 C 384.54597,93.523813 384.74097,93.433813 384.97097,93.433813 C 385.32096,93.433813 385.49596,93.613813 385.49597,93.973813 C 385.49596,94.013813 385.49096,94.058813 385.48097,94.108813 C 385.48096,94.158813 385.47596,94.208813 385.46597,94.258813 M 386.17097,90.313813 C 386.07096,90.863813 385.80596,91.138813 385.37597,91.138813 C 385.03596,91.138813 384.86597,90.963813 384.86597,90.613813 C 384.86597,90.233813 384.94097,89.953813 385.09097,89.773813 C 385.25096,89.583823 385.44596,89.488823 385.67597,89.488813 C 386.02596,89.488823 386.20096,89.673823 386.20097,90.043813 C 386.20096,90.083813 386.19596,90.128813 386.18597,90.178813 C 386.18596,90.218813 386.18096,90.263813 386.17097,90.313813"
     id="text2109" />
  <path
     style="color:#000000;fill:url(#linearGradient1105);fill-opacity:1.0000000;fill-rule:nonzero;stroke:none;stroke-width:2.5625000;stroke-linecap:round;stroke-linejoin:miter;stroke-miterlimit:4.0000000;stroke-dashoffset:0.0000000;stroke-opacity:1.0000000;marker:none;marker-start:none;marker-mid:none;marker-end:none;visibility:visible;display:block"
     d="M 216.50606,98.036346 C 215.75235,98.035788 215.02922,98.195036 214.49627,98.478940 C 213.96332,98.762844 213.66437,99.148060 213.66542,99.549560 L 213.66542,126.53408 C 213.66437,126.93558 213.96332,127.32080 214.49627,127.60470 C 215.02922,127.88860 215.75235,128.04785 216.50606,128.04729 L 325.50446,128.04729 C 326.25816,128.04785 326.98130,127.88860 327.51425,127.60470 C 328.04720,127.32080 328.34614,126.93558 328.34510,126.53408 L 328.34510,99.549560 C 328.34614,99.148060 328.04720,98.762844 327.51425,98.478940 C 326.98130,98.195036 326.25816,98.035788 325.50446,98.036346 L 216.50606,98.036346 z "
     id="path1103"
     sodipodi:nodetypes="ccccccccccccc" />
  <path
     style="color:#000000;fill:#a5a5a5;fill-opacity:1.0000000;fill-rule:nonzero;stroke:none;stroke-width:2.5625000;stroke-linecap:round;stroke-linejoin:miter;stroke-miterlimit:4.0000000;stroke-dashoffset:0.0000000;stroke-opacity:1.0000000;marker:none;marker-start:none;marker-mid:none;marker-end:none;visibility:visible;display:block"
     d="M 218.60342,100.78628 C 217.49129,100.78658 216.58989,101.20323 216.58924,101.71729 L 216.58924,124.36610 C 216.58989,124.88015 217.49129,125.29680 218.60342,125.29710 L 323.55208,125.29710 C 324.66421,125.29680 325.56560,124.88015 325.56626,124.36610 L 325.56626,101.71729 C 325.56560,101.20323 324.66421,100.78658 323.55208,100.78628 L 218.60342,100.78628 z "
     id="path1104"
     sodipodi:nodetypes="ccccccccc" />
  <path
     style="color:#000000;fill:url(#linearGradient1110);fill-opacity:1.0000000;fill-rule:nonzero;stroke:none;stroke-width:2.5625000;stroke-linecap:round;stroke-linejoin:miter;stroke-miterlimit:4.0000000;stroke-dashoffset:0.0000000;stroke-opacity:1.0000000;marker:none;marker-start:none;marker-mid:none;marker-end:none;visibility:visible;display:block"
     d="M 339.40210,98.036346 C 338.64839,98.035788 337.92526,98.195036 337.39231,98.478940 C 336.85936,98.762844 336.56041,99.148060 336.56146,99.549560 L 336.56146,126.53408 C 336.56041,126.93558 336.85936,127.32080 337.39231,127.60470 C 337.92526,127.88860 338.64839,128.04785 339.40210,128.04729 L 448.40050,128.04729 C 449.15420,128.04785 449.87734,127.88860 450.41029,127.60470 C 450.94324,127.32080 451.24218,126.93558 451.24114,126.53408 L 451.24114,99.549560 C 451.24218,99.148060 450.94324,98.762844 450.41029,98.478940 C 449.87734,98.195036 449.15420,98.035788 448.40050,98.036346 L 339.40210,98.036346 z "
     id="path1108"
     sodipodi:nodetypes="ccccccccccccc" />
  <path
     style="color:#000000;fill:#a5a5a5;fill-opacity:1.0000000;fill-rule:nonzero;stroke:none;stroke-width:2.5625000;stroke-linecap:round;stroke-linejoin:miter;stroke-miterlimit:4.0000000;stroke-dashoffset:0.0000000;stroke-opacity:1.0000000;marker:none;marker-start:none;marker-mid:none;marker-end:none;visibility:visible;display:block"
     d="M 341.49946,100.78628 C 340.38733,100.78658 339.48593,101.20323 339.48528,101.71729 L 339.48528,124.36610 C 339.48593,124.88015 340.38733,125.29680 341.49946,125.29710 L 446.44812,125.29710 C 447.56025,125.29680 448.46164,124.88015 448.46230,124.36610 L 448.46230,101.71729 C 448.46164,101.20323 447.56025,100.78658 446.44812,100.78628 L 341.49946,100.78628 z "
     id="path1109"
     sodipodi:nodetypes="ccccccccc" />
</svg>
