<?xml version="1.0" encoding="UTF-8" standalone="no"?>
<!DOCTYPE svg PUBLIC "-//W3C//DTD SVG 20010904//EN"
"http://www.w3.org/TR/2001/REC-SVG-20010904/DTD/svg10.dtd">
<!-- Created with Inkscape (http://www.inkscape.org/) -->
<svg
   width="512.00000pt"
   height="512.00000pt"
   xmlns="http://www.w3.org/2000/svg"
   xmlns:cc="http://web.resource.org/cc/"
   xmlns:inkscape="http://www.inkscape.org/namespaces/inkscape"
   xmlns:sodipodi="http://sodipodi.sourceforge.net/DTD/sodipodi-0.dtd"
   xmlns:rdf="http://www.w3.org/1999/02/22-rdf-syntax-ns#"
   xmlns:dc="http://purl.org/dc/elements/1.1/"
   xmlns:xlink="http://www.w3.org/1999/xlink"
   id="svg1245"
   sodipodi:version="0.32"
   inkscape:version="0.40"
   sodipodi:docbase="/home/thelusiv/pics/vdrift"
   sodipodi:docname="timer box.svg">
  <defs
     id="defs3">
    <linearGradient
       id="linearGradient2064">
      <stop
         style="stop-color:#515161;stop-opacity:1.0000000;"
         offset="0.0000000"
         id="stop2065" />
      <stop
         style="stop-color:#6e647e;stop-opacity:1.0000000;"
         offset="1.0000000"
         id="stop2066" />
    </linearGradient>
    <linearGradient
       id="linearGradient2058">
      <stop
         style="stop-color:#3e3e4e;stop-opacity:1.0000000;"
         offset="0.0000000"
         id="stop2059" />
      <stop
         style="stop-color:#515161;stop-opacity:1.0000000;"
         offset="0.079999998"
         id="stop2115" />
      <stop
         style="stop-color:#575767;stop-opacity:1.0000000;"
         offset="0.92000002"
         id="stop2116" />
      <stop
         style="stop-color:#747484;stop-opacity:1.0000000;"
         offset="1.0000000"
         id="stop2060" />
    </linearGradient>
    <linearGradient
       inkscape:collect="always"
       xlink:href="#linearGradient2058"
       id="linearGradient2061"
       gradientTransform="scale(1.591260,0.628433)"
       x1="148.81264"
       y1="128.49144"
       x2="148.81264"
       y2="324.46649"
       gradientUnits="userSpaceOnUse" />
    <linearGradient
       inkscape:collect="always"
       xlink:href="#linearGradient2064"
       id="linearGradient2063"
       gradientUnits="userSpaceOnUse"
       gradientTransform="matrix(1.539371,0.000000,0.000000,0.588075,7.810928,-277.6232)"
       x1="148.81264"
       y1="128.49144"
       x2="148.81264"
       y2="324.46649" />
    <linearGradient
       inkscape:collect="always"
       xlink:href="#linearGradient2058"
       id="linearGradient2068"
       gradientUnits="userSpaceOnUse"
       gradientTransform="scale(1.591260,0.628433)"
       x1="148.81264"
       y1="128.49144"
       x2="148.81264"
       y2="324.46649" />
    <linearGradient
       inkscape:collect="always"
       xlink:href="#linearGradient2064"
       id="linearGradient2070"
       gradientUnits="userSpaceOnUse"
       gradientTransform="matrix(1.539371,0.000000,0.000000,0.588075,7.810928,-277.6232)"
       x1="148.81264"
       y1="128.49144"
       x2="148.81264"
       y2="324.46649" />
    <linearGradient
       inkscape:collect="always"
       xlink:href="#linearGradient2058"
       id="linearGradient2072"
       gradientUnits="userSpaceOnUse"
       gradientTransform="scale(1.591260,0.628433)"
       x1="148.81264"
       y1="128.49144"
       x2="148.81264"
       y2="324.46649" />
    <linearGradient
       inkscape:collect="always"
       xlink:href="#linearGradient2058"
       id="linearGradient2095"
       gradientUnits="userSpaceOnUse"
       gradientTransform="scale(1.591260,0.628433)"
       x1="151.61626"
       y1="125.95126"
       x2="151.61626"
       y2="320.43228" />
    <linearGradient
       inkscape:collect="always"
       xlink:href="#linearGradient2058"
       id="linearGradient2096"
       gradientUnits="userSpaceOnUse"
       gradientTransform="scale(1.591260,0.628433)"
       x1="158.74254"
       y1="122.52250"
       x2="158.74254"
       y2="332.28168" />
    <linearGradient
       inkscape:collect="always"
       xlink:href="#linearGradient2058"
       id="linearGradient2102"
       gradientUnits="userSpaceOnUse"
       gradientTransform="scale(1.591260,0.628433)"
       x1="148.81264"
       y1="128.49144"
       x2="148.81264"
       y2="324.46649" />
    <linearGradient
       inkscape:collect="always"
       xlink:href="#linearGradient2058"
       id="linearGradient2112"
       gradientUnits="userSpaceOnUse"
       gradientTransform="scale(1.591260,0.628433)"
       x1="136.53656"
       y1="122.59814"
       x2="136.53656"
       y2="323.78540" />
  </defs>
  <sodipodi:namedview
     id="base"
     pagecolor="#ffffff"
     bordercolor="#666666"
     borderopacity="1.0"
     inkscape:pageopacity="0.0"
     inkscape:pageshadow="2"
     inkscape:zoom="3.1291170"
     inkscape:cx="187.77032"
     inkscape:cy="336.52798"
     inkscape:current-layer="svg1245"
     showguides="true"
     inkscape:guide-bbox="true"
     inkscape:guide-points="true"
     inkscape:window-width="871"
     inkscape:window-height="1001"
     inkscape:window-x="295"
     inkscape:window-y="0" />
  <metadata
     id="metadata4">
    <rdf:RDF
       id="RDF5">
      <cc:Work
         rdf:about=""
         id="Work6">
        <dc:format
           id="format7">image/svg+xml</dc:format>
        <dc:type
           id="type9"
           rdf:resource="http://purl.org/dc/dcmitype/StillImage" />
      </cc:Work>
    </rdf:RDF>
  </metadata>
  <g
     inkscape:label="Layer 1"
     inkscape:groupmode="layer"
     id="layer1" />
  <path
     sodipodi:type="inkscape:offset"
     inkscape:radius="4.7604790"
     inkscape:original="M 83.625000 81.843750 L 83.625000 205.00000 L 395.46875 205.00000 L 395.46875 81.843750 L 83.625000 81.843750 z "
     style="color:#000000;fill:url(#linearGradient2068);fill-opacity:1.0000000;fill-rule:nonzero;stroke:none;stroke-width:2.5625000;stroke-linecap:round;stroke-linejoin:miter;stroke-miterlimit:4.0000000;stroke-dashoffset:0.0000000;stroke-opacity:1.0000000;marker:none;marker-start:none;marker-mid:none;marker-end:none;visibility:visible;display:block"
     id="path2067"
     d="M 83.156250,77.093750 C 80.719973,77.340471 78.868174,79.395022 78.875000,81.843750 L 78.875000,205.00000 C 78.881024,207.62085 81.004147,209.74398 83.625000,209.75000 L 395.46875,209.75000 C 398.08960,209.74398 400.21273,207.62085 400.21875,205.00000 L 400.21875,81.843750 C 400.21273,79.222897 398.08960,77.099774 395.46875,77.093750 L 83.625000,77.093750 C 83.468845,77.086053 83.312405,77.086053 83.156250,77.093750 z "
     transform="matrix(0.944487,0.000000,0.000000,-0.838590,4.258878,250.3753)"
     inkscape:export-filename="/home/thelusiv/pics/vdrift/timerbox.png"
     inkscape:export-xdpi="72.000000"
     inkscape:export-ydpi="72.000000" />
  <path
     sodipodi:type="inkscape:offset"
     inkscape:radius="5.3184767"
     inkscape:original="M 88.687500 -201.03125 L 88.687500 -85.781250 L 390.37500 -85.781250 L 390.37500 -201.03125 L 88.687500 -201.03125 z "
     style="color:#000000;fill:url(#linearGradient2070);fill-opacity:1.0000000;fill-rule:nonzero;stroke:none;stroke-width:2.5625000;stroke-linecap:round;stroke-linejoin:miter;stroke-miterlimit:4.0000000;stroke-dashoffset:0.0000000;stroke-opacity:1.0000000;marker:none;marker-start:none;marker-mid:none;marker-end:none;visibility:visible;display:block"
     id="path2069"
     d="M 88.687500,-206.34375 C 85.754974,-206.34016 83.378586,-203.96378 83.375000,-201.03125 L 83.375000,-85.781250 C 83.378586,-82.848724 85.754974,-80.472336 88.687500,-80.468750 L 390.37500,-80.468750 C 393.30753,-80.472336 395.68391,-82.848724 395.68750,-85.781250 L 395.68750,-201.03125 C 395.68391,-203.96378 393.30753,-206.34016 390.37500,-206.34375 L 88.687500,-206.34375 z "
     transform="matrix(0.951203,0.000000,0.000000,-0.840044,2.649245,9.627634)"
     inkscape:export-filename="/home/thelusiv/pics/vdrift/timerbox.png"
     inkscape:export-xdpi="72.000000"
     inkscape:export-ydpi="72.000000" />
  <path
     sodipodi:type="inkscape:offset"
     inkscape:radius="6.8959856"
     inkscape:original="M 83.625000 81.843750 L 83.625000 205.00000 L 395.46875 205.00000 L 395.46875 81.843750 L 83.625000 81.843750 z "
     style="color:#000000;fill:url(#linearGradient2096);fill-opacity:1.0;fill-rule:nonzero;stroke:none;stroke-width:2.5625000;stroke-linecap:round;stroke-linejoin:miter;stroke-miterlimit:4.0000000;stroke-dashoffset:0.0000000;stroke-opacity:1.0000000;marker:none;marker-start:none;marker-mid:none;marker-end:none;visibility:visible;display:block;"
     id="path2071"
     d="M 83.625000,74.937500 C 81.792569,74.934954 80.034458,75.661757 78.738733,76.957483 C 77.443007,78.253208 76.716204,80.011319 76.718750,81.843750 L 76.718750,205.00000 C 76.716204,206.83243 77.443007,208.59054 78.738733,209.88627 C 80.034458,211.18199 81.792569,211.90880 83.625000,211.90625 L 395.46875,211.90625 C 397.30118,211.90880 399.05929,211.18199 400.35502,209.88627 C 401.65074,208.59054 402.37755,206.83243 402.37500,205.00000 L 402.37500,81.843750 C 402.37755,80.011319 401.65074,78.253208 400.35502,76.957483 C 399.05929,75.661757 397.30118,74.934954 395.46875,74.937500 L 83.625000,74.937500 z "
     transform="matrix(0.411314,0.000000,0.000000,0.551138,204.1794,56.73543)"
     inkscape:export-filename="/home/thelusiv/pics/vdrift/timerbox.png"
     inkscape:export-xdpi="72.000000"
     inkscape:export-ydpi="72.000000" />
  <path
     sodipodi:type="inkscape:offset"
     inkscape:radius="5.0649772"
     inkscape:original="M 83.625000 81.843750 L 83.625000 205.00000 L 395.46875 205.00000 L 395.46875 81.843750 L 83.625000 81.843750 z "
     style="color:#000000;fill:#a5a5a5;fill-opacity:1.0000000;fill-rule:nonzero;stroke:none;stroke-width:2.5625000;stroke-linecap:round;stroke-linejoin:miter;stroke-miterlimit:4.0000000;stroke-dashoffset:0.0000000;stroke-opacity:1.0000000;marker:none;marker-start:none;marker-mid:none;marker-end:none;visibility:visible;display:block;"
     id="path2074"
     d="M 83.625000,76.781250 C 80.829741,76.782896 78.564146,79.048491 78.562500,81.843750 L 78.562500,205.00000 C 78.564146,207.79526 80.829741,210.06085 83.625000,210.06250 L 395.46875,210.06250 C 398.26401,210.06085 400.52960,207.79526 400.53125,205.00000 L 400.53125,81.843750 C 400.52960,79.048491 398.26401,76.782896 395.46875,76.781250 L 83.625000,76.781250 z "
     transform="matrix(0.397863,0.000000,0.000000,0.525120,207.4016,60.46695)"
     inkscape:export-filename="/home/thelusiv/pics/vdrift/timerbox.png"
     inkscape:export-xdpi="72.000000"
     inkscape:export-ydpi="72.000000" />
  <path
     transform="translate(-17.51318,3.347412)"
     style="font-size:15.000000;font-style:italic;font-variant:normal;font-weight:bold;font-stretch:normal;fill:#000000;fill-opacity:1.0000000;stroke:none;stroke-width:1.0000000pt;stroke-linecap:butt;stroke-linejoin:miter;stroke-opacity:1.0000000;font-family:Forgotten Futurist;text-anchor:start;writing-mode:lr"
     d="M 262.01069,91.724609 L 258.05069,91.724609 L 259.71569,82.229609 L 261.17069,82.229609 L 259.77569,90.134609 L 262.28069,90.134609 L 262.01069,91.724609 M 267.35631,90.149609 L 267.56631,88.979609 L 265.58631,88.979609 C 265.40631,88.989612 265.26131,89.064612 265.15131,89.204609 C 265.04131,89.334612 264.98631,89.524612 264.98631,89.774609 C 264.98631,90.024611 265.11631,90.149611 265.37631,90.149609 L 267.35631,90.149609 M 265.15131,91.724609 C 264.07131,91.724609 263.53131,91.214610 263.53131,90.194609 C 263.53131,90.094611 263.53631,89.989611 263.54631,89.879609 C 263.55631,89.769611 263.57131,89.654611 263.59131,89.534609 L 263.60631,89.489609 C 263.84631,88.099613 264.64131,87.404614 265.99131,87.404609 L 267.82131,87.404609 L 267.88131,87.074609 C 267.89131,87.024614 267.89631,86.979614 267.89631,86.939609 C 267.90631,86.899614 267.91131,86.859614 267.91131,86.819609 C 267.91131,86.439615 267.70131,86.249615 267.28131,86.249609 L 264.52131,86.249609 L 264.79131,84.674609 L 267.53631,84.689609 C 268.78631,84.729616 269.41131,85.299616 269.41131,86.399609 C 269.41131,86.509615 269.40631,86.619614 269.39631,86.729609 C 269.38631,86.829614 269.37131,86.939614 269.35131,87.059609 L 268.54131,91.724609 L 265.15131,91.724609 M 271.96436,86.249609 L 271.27436,90.134609 L 272.89436,90.149609 C 273.37436,90.139611 273.65936,89.904611 273.74936,89.444609 L 274.18436,87.014609 C 274.19436,86.964614 274.19935,86.924614 274.19936,86.894609 C 274.19935,86.854614 274.19935,86.814614 274.19936,86.774609 C 274.19935,86.424615 274.02436,86.249615 273.67436,86.249609 L 271.96436,86.249609 M 271.00436,91.709609 L 270.58436,94.094609 L 269.12936,94.094609 L 270.79436,84.659609 L 274.00436,84.659609 C 274.57435,84.659616 275.00435,84.804616 275.29436,85.094609 C 275.58435,85.374616 275.72935,85.784615 275.72936,86.324609 C 275.72935,86.554615 275.70935,86.784614 275.66936,87.014609 L 275.24936,89.384609 C 274.97935,90.934610 274.11436,91.709609 272.65436,91.709609 L 271.00436,91.709609 M 281.89014,91.724609 L 281.44014,91.724609 C 280.11014,91.724609 279.44514,91.139610 279.44514,89.969609 C 279.44514,89.859611 279.45014,89.744611 279.46014,89.624609 C 279.48014,89.504612 279.50014,89.374612 279.52014,89.234609 L 280.73514,82.289609 L 282.17514,82.289609 L 281.75514,84.674609 L 283.12014,84.674609 L 282.85014,86.249609 L 281.48514,86.249609 L 280.94514,89.264609 C 280.93514,89.304612 280.93014,89.354612 280.93014,89.414609 C 280.93014,89.904611 281.34014,90.149611 282.16014,90.149609 L 281.89014,91.724609 M 286.19749,83.774609 L 284.72749,83.774609 L 284.99749,82.274609 L 286.46749,82.274609 L 286.19749,83.774609 M 284.80249,91.724609 L 283.33249,91.724609 L 284.57749,84.659609 L 286.04749,84.659609 L 284.80249,91.724609 M 295.69084,91.724609 L 294.25084,91.724609 L 295.03084,87.254609 C 295.04084,87.184614 295.04584,87.124614 295.04584,87.074609 C 295.05584,87.014614 295.06084,86.959614 295.06084,86.909609 C 295.06084,86.469615 294.86584,86.249615 294.47584,86.249609 L 293.65084,86.249609 C 293.09084,86.249615 292.75584,86.559615 292.64584,87.179609 L 291.85084,91.724609 L 290.39584,91.724609 L 291.19084,87.164609 C 291.20084,87.114614 291.20584,87.064614 291.20584,87.014609 C 291.21584,86.964614 291.22084,86.914614 291.22084,86.864609 C 291.22084,86.454615 291.02084,86.249615 290.62084,86.249609 L 289.88584,86.249609 C 289.30584,86.249615 288.94084,86.609614 288.79084,87.329609 L 288.02584,91.724609 L 286.57084,91.724609 L 287.80084,84.674609 L 289.25584,84.674609 L 289.15084,85.259609 C 289.49084,84.869616 289.86084,84.674616 290.26084,84.674609 L 291.26584,84.674609 C 291.90584,84.674616 292.31584,84.909616 292.49584,85.379609 C 292.88584,84.909616 293.36584,84.674616 293.93584,84.674609 L 295.04584,84.674609 C 296.06583,84.674616 296.57583,85.209616 296.57584,86.279609 C 296.57583,86.409615 296.56583,86.544615 296.54584,86.684609 C 296.53583,86.814614 296.52083,86.954614 296.50084,87.104609 L 295.69084,91.724609 M 298.91186,87.404609 L 301.34186,87.404609 L 301.43186,86.879609 C 301.44185,86.839614 301.44685,86.804614 301.44686,86.774609 C 301.44685,86.734614 301.44685,86.699614 301.44686,86.669609 C 301.44685,86.389615 301.31686,86.249615 301.05686,86.249609 L 299.72186,86.249609 C 299.33186,86.249615 299.10186,86.444615 299.03186,86.834609 L 299.01686,86.924609 L 298.91186,87.404609 M 302.49686,88.979609 L 298.64186,88.979609 L 298.55186,89.459609 C 298.54186,89.499612 298.53686,89.539612 298.53686,89.579609 C 298.53686,89.609611 298.53686,89.639611 298.53686,89.669609 C 298.53686,89.979611 298.69186,90.134611 299.00186,90.134609 L 302.07686,90.134609 L 301.80686,91.724609 L 298.73186,91.724609 C 297.61186,91.724609 297.05186,91.214610 297.05186,90.194609 C 297.05186,90.094611 297.05686,89.994611 297.06686,89.894609 C 297.07686,89.784611 297.09186,89.669611 297.11186,89.549609 L 297.56186,86.924609 C 297.82186,85.424616 298.65186,84.669616 300.05186,84.659609 L 301.31186,84.674609 C 301.85185,84.684616 302.25185,84.814616 302.51186,85.064609 C 302.78185,85.304616 302.91685,85.679615 302.91686,86.189609 C 302.91685,86.419615 302.89685,86.649614 302.85686,86.879609 L 302.49686,88.979609 M 304.48928,90.959609 C 304.37928,91.499610 304.11928,91.769609 303.70928,91.769609 C 303.35928,91.769609 303.18428,91.589610 303.18428,91.229609 C 303.18428,90.859610 303.25928,90.584611 303.40928,90.404609 C 303.56928,90.224611 303.76428,90.134611 303.99428,90.134609 C 304.34428,90.134611 304.51928,90.314611 304.51928,90.674609 C 304.51928,90.714610 304.51428,90.759610 304.50428,90.809609 C 304.50428,90.859610 304.49928,90.909610 304.48928,90.959609 M 305.19428,87.014609 C 305.09428,87.564614 304.82928,87.839613 304.39928,87.839609 C 304.05928,87.839613 303.88928,87.664613 303.88928,87.314609 C 303.88928,86.934614 303.96428,86.654614 304.11428,86.474609 C 304.27428,86.284615 304.46928,86.189615 304.69928,86.189609 C 305.04928,86.189615 305.22428,86.374615 305.22428,86.744609 C 305.22428,86.784614 305.21928,86.829614 305.20928,86.879609 C 305.20928,86.919614 305.20428,86.964614 305.19428,87.014609"
     id="text2079" />
  <path
     sodipodi:type="inkscape:offset"
     inkscape:radius="6.8959856"
     inkscape:original="M 83.625000 81.843750 L 83.625000 205.00000 L 395.46875 205.00000 L 395.46875 81.843750 L 83.625000 81.843750 z "
     style="color:#000000;fill:url(#linearGradient2095);fill-opacity:1.0;fill-rule:nonzero;stroke:none;stroke-width:2.5625000;stroke-linecap:round;stroke-linejoin:miter;stroke-miterlimit:4.0000000;stroke-dashoffset:0.0000000;stroke-opacity:1.0000000;marker:none;marker-start:none;marker-mid:none;marker-end:none;visibility:visible;display:block;"
     id="path2090"
     d="M 83.625000,74.937500 C 81.792569,74.934954 80.034458,75.661757 78.738733,76.957483 C 77.443007,78.253208 76.716204,80.011319 76.718750,81.843750 L 76.718750,205.00000 C 76.716204,206.83243 77.443007,208.59054 78.738733,209.88627 C 80.034458,211.18199 81.792569,211.90880 83.625000,211.90625 L 395.46875,211.90625 C 397.30118,211.90880 399.05929,211.18199 400.35502,209.88627 C 401.65074,208.59054 402.37755,206.83243 402.37500,205.00000 L 402.37500,81.843750 C 402.37755,80.011319 401.65074,78.253208 400.35502,76.957483 C 399.05929,75.661757 397.30118,74.934954 395.46875,74.937500 L 83.625000,74.937500 z "
     transform="matrix(0.411314,0.000000,0.000000,0.219108,59.55449,81.61694)"
     inkscape:export-filename="/home/thelusiv/pics/vdrift/timerbox.png"
     inkscape:export-xdpi="72.000000"
     inkscape:export-ydpi="72.000000" />
  <path
     sodipodi:type="inkscape:offset"
     inkscape:radius="5.0649772"
     inkscape:original="M 83.625000 81.843750 L 83.625000 205.00000 L 395.46875 205.00000 L 395.46875 81.843750 L 83.625000 81.843750 z "
     style="color:#000000;fill:#a5a5a5;fill-opacity:1.0000000;fill-rule:nonzero;stroke:none;stroke-width:2.5625000;stroke-linecap:round;stroke-linejoin:miter;stroke-miterlimit:4.0000000;stroke-dashoffset:0.0000000;stroke-opacity:1.0000000;marker:none;marker-start:none;marker-mid:none;marker-end:none;visibility:visible;display:block;"
     id="path2091"
     d="M 83.625000,76.781250 C 80.829741,76.782896 78.564146,79.048491 78.562500,81.843750 L 78.562500,205.00000 C 78.564146,207.79526 80.829741,210.06085 83.625000,210.06250 L 395.46875,210.06250 C 398.26401,210.06085 400.52960,207.79526 400.53125,205.00000 L 400.53125,81.843750 C 400.52960,79.048491 398.26401,76.782896 395.46875,76.781250 L 83.625000,76.781250 z "
     transform="matrix(0.397863,0.000000,0.000000,0.183903,62.77669,86.66598)"
     inkscape:export-filename="/home/thelusiv/pics/vdrift/timerbox.png"
     inkscape:export-xdpi="72.000000"
     inkscape:export-ydpi="72.000000" />
  <path
     style="font-size:15.000000;font-style:italic;font-variant:normal;font-weight:bold;font-stretch:normal;fill:#000000;fill-opacity:1.0000000;stroke:none;stroke-width:1.0000000pt;stroke-linecap:butt;stroke-linejoin:miter;stroke-opacity:1.0000000;font-family:Forgotten Futurist;text-anchor:start;writing-mode:lr"
     d="M 262.01069,91.724609 L 258.05069,91.724609 L 259.71569,82.229609 L 261.17069,82.229609 L 259.77569,90.134609 L 262.28069,90.134609 L 262.01069,91.724609 M 267.35631,90.149609 L 267.56631,88.979609 L 265.58631,88.979609 C 265.40631,88.989612 265.26131,89.064612 265.15131,89.204609 C 265.04131,89.334612 264.98631,89.524612 264.98631,89.774609 C 264.98631,90.024611 265.11631,90.149611 265.37631,90.149609 L 267.35631,90.149609 M 265.15131,91.724609 C 264.07131,91.724609 263.53131,91.214610 263.53131,90.194609 C 263.53131,90.094611 263.53631,89.989611 263.54631,89.879609 C 263.55631,89.769611 263.57131,89.654611 263.59131,89.534609 L 263.60631,89.489609 C 263.84631,88.099613 264.64131,87.404614 265.99131,87.404609 L 267.82131,87.404609 L 267.88131,87.074609 C 267.89131,87.024614 267.89631,86.979614 267.89631,86.939609 C 267.90631,86.899614 267.91131,86.859614 267.91131,86.819609 C 267.91131,86.439615 267.70131,86.249615 267.28131,86.249609 L 264.52131,86.249609 L 264.79131,84.674609 L 267.53631,84.689609 C 268.78631,84.729616 269.41131,85.299616 269.41131,86.399609 C 269.41131,86.509615 269.40631,86.619614 269.39631,86.729609 C 269.38631,86.829614 269.37131,86.939614 269.35131,87.059609 L 268.54131,91.724609 L 265.15131,91.724609 M 270.47538,91.724609 L 270.74538,90.149609 L 273.91038,90.149609 C 274.14037,90.149611 274.33037,90.094611 274.48038,89.984609 C 274.64037,89.864611 274.72037,89.689611 274.72038,89.459609 C 274.72037,89.159612 274.53037,89.009612 274.15038,89.009609 L 272.75538,89.009609 C 271.63537,89.009612 271.07537,88.504613 271.07538,87.494609 C 271.07537,86.574615 271.30037,85.879615 271.75038,85.409609 C 272.21037,84.929616 272.80037,84.679616 273.52038,84.659609 L 276.68538,84.659609 L 276.40038,86.249609 L 273.13038,86.249609 C 272.96037,86.249615 272.81537,86.314615 272.69538,86.444609 C 272.58537,86.564615 272.53037,86.744614 272.53038,86.984609 C 272.53037,87.284614 272.71037,87.434614 273.07038,87.434609 L 274.40538,87.434609 C 275.59537,87.434614 276.19037,87.924613 276.19038,88.904609 C 276.19037,89.074612 276.17537,89.254612 276.14538,89.444609 L 276.13038,89.519609 C 275.87037,90.989610 275.05037,91.724609 273.67038,91.724609 L 270.47538,91.724609 M 279.60499,91.724609 L 279.15499,91.724609 C 277.82498,91.724609 277.15998,91.139610 277.15999,89.969609 C 277.15998,89.859611 277.16498,89.744611 277.17499,89.624609 C 277.19498,89.504612 277.21498,89.374612 277.23499,89.234609 L 278.44999,82.289609 L 279.88999,82.289609 L 279.46999,84.674609 L 280.83499,84.674609 L 280.56499,86.249609 L 279.19999,86.249609 L 278.65999,89.264609 C 278.64998,89.304612 278.64498,89.354612 278.64499,89.414609 C 278.64498,89.904611 279.05498,90.149611 279.87499,90.149609 L 279.60499,91.724609 M 285.28694,91.724609 L 283.81694,91.724609 L 285.46694,82.289609 L 286.93694,82.289609 L 285.28694,91.724609 M 290.47155,90.149609 L 290.68155,88.979609 L 288.70155,88.979609 C 288.52155,88.989612 288.37655,89.064612 288.26655,89.204609 C 288.15655,89.334612 288.10155,89.524612 288.10155,89.774609 C 288.10155,90.024611 288.23155,90.149611 288.49155,90.149609 L 290.47155,90.149609 M 288.26655,91.724609 C 287.18655,91.724609 286.64655,91.214610 286.64655,90.194609 C 286.64655,90.094611 286.65155,89.989611 286.66155,89.879609 C 286.67155,89.769611 286.68655,89.654611 286.70655,89.534609 L 286.72155,89.489609 C 286.96155,88.099613 287.75655,87.404614 289.10655,87.404609 L 290.93655,87.404609 L 290.99655,87.074609 C 291.00654,87.024614 291.01154,86.979614 291.01155,86.939609 C 291.02154,86.899614 291.02654,86.859614 291.02655,86.819609 C 291.02654,86.439615 290.81654,86.249615 290.39655,86.249609 L 287.63655,86.249609 L 287.90655,84.674609 L 290.65155,84.689609 C 291.90154,84.729616 292.52654,85.299616 292.52655,86.399609 C 292.52654,86.509615 292.52154,86.619614 292.51155,86.729609 C 292.50154,86.829614 292.48654,86.939614 292.46655,87.059609 L 291.65655,91.724609 L 288.26655,91.724609 M 295.07959,86.249609 L 294.38959,90.134609 L 296.00959,90.149609 C 296.48959,90.139611 296.77459,89.904611 296.86459,89.444609 L 297.29959,87.014609 C 297.30959,86.964614 297.31459,86.924614 297.31459,86.894609 C 297.31459,86.854614 297.31459,86.814614 297.31459,86.774609 C 297.31459,86.424615 297.13959,86.249615 296.78959,86.249609 L 295.07959,86.249609 M 294.11959,91.709609 L 293.69959,94.094609 L 292.24459,94.094609 L 293.90959,84.659609 L 297.11959,84.659609 C 297.68959,84.659616 298.11959,84.804616 298.40959,85.094609 C 298.69959,85.374616 298.84459,85.784615 298.84459,86.324609 C 298.84459,86.554615 298.82459,86.784614 298.78459,87.014609 L 298.36459,89.384609 C 298.09459,90.934610 297.22959,91.709609 295.76959,91.709609 L 294.11959,91.709609 M 300.38772,90.959609 C 300.27772,91.499610 300.01772,91.769609 299.60772,91.769609 C 299.25772,91.769609 299.08272,91.589610 299.08272,91.229609 C 299.08272,90.859610 299.15772,90.584611 299.30772,90.404609 C 299.46772,90.224611 299.66272,90.134611 299.89272,90.134609 C 300.24272,90.134611 300.41772,90.314611 300.41772,90.674609 C 300.41772,90.714610 300.41272,90.759610 300.40272,90.809609 C 300.40272,90.859610 300.39772,90.909610 300.38772,90.959609 M 301.09272,87.014609 C 300.99272,87.564614 300.72772,87.839613 300.29772,87.839609 C 299.95772,87.839613 299.78772,87.664613 299.78772,87.314609 C 299.78772,86.934614 299.86272,86.654614 300.01272,86.474609 C 300.17272,86.284615 300.36772,86.189615 300.59772,86.189609 C 300.94772,86.189615 301.12272,86.374615 301.12272,86.744609 C 301.12272,86.784614 301.11772,86.829614 301.10772,86.879609 C 301.10772,86.919614 301.10272,86.964614 301.09272,87.014609"
     id="text2092"
     transform="translate(-162.1381,3.347412)" />
  <path
     sodipodi:type="inkscape:offset"
     inkscape:radius="6.8959856"
     inkscape:original="M 83.625000 81.843750 L 83.625000 205.00000 L 395.46875 205.00000 L 395.46875 81.843750 L 83.625000 81.843750 z "
     style="color:#000000;fill:url(#linearGradient2112);fill-opacity:1.0;fill-rule:nonzero;stroke:none;stroke-width:2.5625000;stroke-linecap:round;stroke-linejoin:miter;stroke-miterlimit:4.0000000;stroke-dashoffset:0.0000000;stroke-opacity:1.0000000;marker:none;marker-start:none;marker-mid:none;marker-end:none;visibility:visible;display:block;"
     id="path2107"
     d="M 83.625000,74.937500 C 81.792569,74.934954 80.034458,75.661757 78.738733,76.957483 C 77.443007,78.253208 76.716204,80.011319 76.718750,81.843750 L 76.718750,205.00000 C 76.716204,206.83243 77.443007,208.59054 78.738733,209.88627 C 80.034458,211.18199 81.792569,211.90880 83.625000,211.90625 L 395.46875,211.90625 C 397.30118,211.90880 399.05929,211.18199 400.35502,209.88627 C 401.65074,208.59054 402.37755,206.83243 402.37500,205.00000 L 402.37500,81.843750 C 402.37755,80.011319 401.65074,78.253208 400.35502,76.957483 C 399.05929,75.661757 397.30118,74.934954 395.46875,74.937500 L 83.625000,74.937500 z "
     transform="matrix(0.411314,0.000000,0.000000,0.219108,59.55449,126.5298)"
     inkscape:export-filename="/home/thelusiv/pics/vdrift/timerbox.png"
     inkscape:export-xdpi="72.000000"
     inkscape:export-ydpi="72.000000" />
  <path
     sodipodi:type="inkscape:offset"
     inkscape:radius="5.0649772"
     inkscape:original="M 83.625000 81.843750 L 83.625000 205.00000 L 395.46875 205.00000 L 395.46875 81.843750 L 83.625000 81.843750 z "
     style="color:#000000;fill:#a5a5a5;fill-opacity:1.0000000;fill-rule:nonzero;stroke:none;stroke-width:2.5625000;stroke-linecap:round;stroke-linejoin:miter;stroke-miterlimit:4.0000000;stroke-dashoffset:0.0000000;stroke-opacity:1.0000000;marker:none;marker-start:none;marker-mid:none;marker-end:none;visibility:visible;display:block;"
     id="path2108"
     d="M 83.625000,76.781250 C 80.829741,76.782896 78.564146,79.048491 78.562500,81.843750 L 78.562500,205.00000 C 78.564146,207.79526 80.829741,210.06085 83.625000,210.06250 L 395.46875,210.06250 C 398.26401,210.06085 400.52960,207.79526 400.53125,205.00000 L 400.53125,81.843750 C 400.52960,79.048491 398.26401,76.782896 395.46875,76.781250 L 83.625000,76.781250 z "
     transform="matrix(0.397863,0.000000,0.000000,0.183903,62.77669,131.5788)"
     inkscape:export-filename="/home/thelusiv/pics/vdrift/timerbox.png"
     inkscape:export-xdpi="72.000000"
     inkscape:export-ydpi="72.000000" />
  <path
     transform="translate(-162.1381,48.26023)"
     style="font-size:15.000000;font-style:italic;font-variant:normal;font-weight:bold;font-stretch:normal;fill:#000000;fill-opacity:1.0000000;stroke:none;stroke-width:1.0000000pt;stroke-linecap:butt;stroke-linejoin:miter;stroke-opacity:1.0000000;font-family:Forgotten Futurist;text-anchor:start;writing-mode:lr"
     d="M 260.91569,83.864609 L 260.49569,86.204609 L 261.89069,86.204609 C 262.27068,86.204615 262.58568,86.069615 262.83569,85.799609 C 263.09568,85.519616 263.22568,85.109616 263.22569,84.569609 C 263.22568,84.099617 263.03568,83.864617 262.65569,83.864609 L 260.91569,83.864609 M 260.22569,87.779609 L 259.80569,90.134609 L 261.56069,90.134609 C 261.80068,90.134611 262.02068,90.009611 262.22069,89.759609 C 262.42068,89.509612 262.52068,89.134612 262.52069,88.634609 C 262.52068,88.064613 262.22068,87.779613 261.62069,87.779609 L 260.22569,87.779609 M 264.60569,85.169609 C 264.45568,86.049615 264.05068,86.664614 263.39069,87.014609 C 263.80068,87.274614 264.00568,87.699613 264.00569,88.289609 C 264.00568,88.369613 264.00068,88.454613 263.99069,88.544609 C 263.99068,88.634612 263.98068,88.729612 263.96069,88.829609 L 263.90069,89.114609 C 263.60068,90.854610 262.66068,91.724609 261.08069,91.724609 L 258.06569,91.724609 L 259.71569,82.289609 L 262.73069,82.289609 C 264.07068,82.289619 264.74068,82.874618 264.74069,84.044609 C 264.74068,84.154617 264.73568,84.264617 264.72569,84.374609 C 264.71568,84.484617 264.70068,84.599616 264.68069,84.719609 L 264.60569,85.169609 M 267.38842,87.404609 L 269.81842,87.404609 L 269.90842,86.879609 C 269.91842,86.839614 269.92342,86.804614 269.92342,86.774609 C 269.92342,86.734614 269.92342,86.699614 269.92342,86.669609 C 269.92342,86.389615 269.79342,86.249615 269.53342,86.249609 L 268.19842,86.249609 C 267.80842,86.249615 267.57842,86.444615 267.50842,86.834609 L 267.49342,86.924609 L 267.38842,87.404609 M 270.97342,88.979609 L 267.11842,88.979609 L 267.02842,89.459609 C 267.01842,89.499612 267.01342,89.539612 267.01342,89.579609 C 267.01342,89.609611 267.01342,89.639611 267.01342,89.669609 C 267.01342,89.979611 267.16842,90.134611 267.47842,90.134609 L 270.55342,90.134609 L 270.28342,91.724609 L 267.20842,91.724609 C 266.08842,91.724609 265.52842,91.214610 265.52842,90.194609 C 265.52842,90.094611 265.53342,89.994611 265.54342,89.894609 C 265.55342,89.784611 265.56842,89.669611 265.58842,89.549609 L 266.03842,86.924609 C 266.29842,85.424616 267.12842,84.669616 268.52842,84.659609 L 269.78842,84.674609 C 270.32842,84.684616 270.72842,84.814616 270.98842,85.064609 C 271.25842,85.304616 271.39342,85.679615 271.39342,86.189609 C 271.39342,86.419615 271.37342,86.649614 271.33342,86.879609 L 270.97342,88.979609 M 272.37967,91.724609 L 272.64967,90.149609 L 275.81467,90.149609 C 276.04467,90.149611 276.23467,90.094611 276.38467,89.984609 C 276.54467,89.864611 276.62467,89.689611 276.62467,89.459609 C 276.62467,89.159612 276.43467,89.009612 276.05467,89.009609 L 274.65967,89.009609 C 273.53967,89.009612 272.97967,88.504613 272.97967,87.494609 C 272.97967,86.574615 273.20467,85.879615 273.65467,85.409609 C 274.11467,84.929616 274.70467,84.679616 275.42467,84.659609 L 278.58967,84.659609 L 278.30467,86.249609 L 275.03467,86.249609 C 274.86467,86.249615 274.71967,86.314615 274.59967,86.444609 C 274.48967,86.564615 274.43467,86.744614 274.43467,86.984609 C 274.43467,87.284614 274.61467,87.434614 274.97467,87.434609 L 276.30967,87.434609 C 277.49967,87.434614 278.09467,87.924613 278.09467,88.904609 C 278.09467,89.074612 278.07967,89.254612 278.04967,89.444609 L 278.03467,89.519609 C 277.77467,90.989610 276.95467,91.724609 275.57467,91.724609 L 272.37967,91.724609 M 281.50928,91.724609 L 281.05928,91.724609 C 279.72928,91.724609 279.06428,91.139610 279.06428,89.969609 C 279.06428,89.859611 279.06928,89.744611 279.07928,89.624609 C 279.09928,89.504612 279.11928,89.374612 279.13928,89.234609 L 280.35428,82.289609 L 281.79428,82.289609 L 281.37428,84.674609 L 282.73928,84.674609 L 282.46928,86.249609 L 281.10428,86.249609 L 280.56428,89.264609 C 280.55428,89.304612 280.54928,89.354612 280.54928,89.414609 C 280.54928,89.904611 280.95928,90.149611 281.77928,90.149609 L 281.50928,91.724609 M 287.19124,91.724609 L 285.72124,91.724609 L 287.37124,82.289609 L 288.84124,82.289609 L 287.19124,91.724609 M 292.37584,90.149609 L 292.58584,88.979609 L 290.60584,88.979609 C 290.42584,88.989612 290.28084,89.064612 290.17084,89.204609 C 290.06084,89.334612 290.00584,89.524612 290.00584,89.774609 C 290.00584,90.024611 290.13584,90.149611 290.39584,90.149609 L 292.37584,90.149609 M 290.17084,91.724609 C 289.09084,91.724609 288.55084,91.214610 288.55084,90.194609 C 288.55084,90.094611 288.55584,89.989611 288.56584,89.879609 C 288.57584,89.769611 288.59084,89.654611 288.61084,89.534609 L 288.62584,89.489609 C 288.86584,88.099613 289.66084,87.404614 291.01084,87.404609 L 292.84084,87.404609 L 292.90084,87.074609 C 292.91084,87.024614 292.91584,86.979614 292.91584,86.939609 C 292.92584,86.899614 292.93084,86.859614 292.93084,86.819609 C 292.93084,86.439615 292.72084,86.249615 292.30084,86.249609 L 289.54084,86.249609 L 289.81084,84.674609 L 292.55584,84.689609 C 293.80584,84.729616 294.43084,85.299616 294.43084,86.399609 C 294.43084,86.509615 294.42584,86.619614 294.41584,86.729609 C 294.40584,86.829614 294.39084,86.939614 294.37084,87.059609 L 293.56084,91.724609 L 290.17084,91.724609 M 296.98389,86.249609 L 296.29389,90.134609 L 297.91389,90.149609 C 298.39389,90.139611 298.67889,89.904611 298.76889,89.444609 L 299.20389,87.014609 C 299.21389,86.964614 299.21889,86.924614 299.21889,86.894609 C 299.21889,86.854614 299.21889,86.814614 299.21889,86.774609 C 299.21889,86.424615 299.04389,86.249615 298.69389,86.249609 L 296.98389,86.249609 M 296.02389,91.709609 L 295.60389,94.094609 L 294.14889,94.094609 L 295.81389,84.659609 L 299.02389,84.659609 C 299.59389,84.659616 300.02389,84.804616 300.31389,85.094609 C 300.60388,85.374616 300.74888,85.784615 300.74889,86.324609 C 300.74888,86.554615 300.72888,86.784614 300.68889,87.014609 L 300.26889,89.384609 C 299.99889,90.934610 299.13389,91.709609 297.67389,91.709609 L 296.02389,91.709609 M 302.29202,90.959609 C 302.18201,91.499610 301.92201,91.769609 301.51202,91.769609 C 301.16202,91.769609 300.98702,91.589610 300.98702,91.229609 C 300.98702,90.859610 301.06202,90.584611 301.21202,90.404609 C 301.37202,90.224611 301.56702,90.134611 301.79702,90.134609 C 302.14701,90.134611 302.32201,90.314611 302.32202,90.674609 C 302.32201,90.714610 302.31701,90.759610 302.30702,90.809609 C 302.30701,90.859610 302.30201,90.909610 302.29202,90.959609 M 302.99702,87.014609 C 302.89701,87.564614 302.63201,87.839613 302.20202,87.839609 C 301.86201,87.839613 301.69202,87.664613 301.69202,87.314609 C 301.69202,86.934614 301.76702,86.654614 301.91702,86.474609 C 302.07701,86.284615 302.27201,86.189615 302.50202,86.189609 C 302.85201,86.189615 303.02701,86.374615 303.02702,86.744609 C 303.02701,86.784614 303.02201,86.829614 303.01202,86.879609 C 303.01201,86.919614 303.00701,86.964614 302.99702,87.014609"
     id="text2109" />
</svg>
