<?xml version="1.0" encoding="UTF-8" standalone="no"?>
<!-- Created with Inkscape (http://www.inkscape.org/) -->
<svg
   xmlns:dc="http://purl.org/dc/elements/1.1/"
   xmlns:cc="http://web.resource.org/cc/"
   xmlns:rdf="http://www.w3.org/1999/02/22-rdf-syntax-ns#"
   xmlns:svg="http://www.w3.org/2000/svg"
   xmlns="http://www.w3.org/2000/svg"
   xmlns:sodipodi="http://inkscape.sourceforge.net/DTD/sodipodi-0.dtd"
   xmlns:inkscape="http://www.inkscape.org/namespaces/inkscape"
   width="744.09448819"
   height="1052.3622047"
   id="svg2"
   sodipodi:version="0.32"
   inkscape:version="0.42.2"
   sodipodi:docbase="/home/thelusiv/pics/vdrift"
   sodipodi:docname="bug.svg">
  <defs
     id="defs4" />
  <sodipodi:namedview
     id="base"
     pagecolor="#ffffff"
     bordercolor="#666666"
     borderopacity="1.0"
     inkscape:pageopacity="0.0"
     inkscape:pageshadow="2"
     inkscape:zoom="0.76851852"
     inkscape:cx="186.83146"
     inkscape:cy="453.43358"
     inkscape:document-units="px"
     inkscape:current-layer="layer1"
     inkscape:window-width="1280"
     inkscape:window-height="1001"
     inkscape:window-x="0"
     inkscape:window-y="0" />
  <metadata
     id="metadata7">
    <rdf:RDF>
      <cc:Work
         rdf:about="">
        <dc:format>image/svg+xml</dc:format>
        <dc:type
           rdf:resource="http://purl.org/dc/dcmitype/StillImage" />
      </cc:Work>
    </rdf:RDF>
  </metadata>
  <g
     inkscape:label="Layer 1"
     inkscape:groupmode="layer"
     id="layer1">
    <path
       style="fill:#007000;fill-opacity:1.0000000;fill-rule:evenodd;stroke:none;stroke-width:1.0000000px;stroke-linecap:butt;stroke-linejoin:miter;stroke-opacity:1.0000000"
       d="M 309.15049,396.33748 L 292.58886,369.65484 L 276.94732,444.18220 L 281.54777,446.02238 L 294.42904,385.29639 L 307.31031,402.77811 L 309.15049,396.33748 z "
       id="path1316"
       inkscape:export-filename="/home/thelusiv/pics/vdrift/bug.png"
       inkscape:export-xdpi="90.000000"
       inkscape:export-ydpi="90.000000" />
    <path
       style="fill:#007000;fill-opacity:1.0000000;fill-rule:evenodd;stroke:none;stroke-width:1.0000000px;stroke-linecap:butt;stroke-linejoin:miter;stroke-opacity:1.0000000"
       d="M 269.90231,438.34593 L 228.49823,417.18384 L 228.49823,489.87101 L 232.17859,488.95092 L 234.93887,429.14502 L 268.98222,445.70665 L 269.90231,438.34593 z "
       id="path1322"
       inkscape:export-filename="/home/thelusiv/pics/vdrift/bug.png"
       inkscape:export-xdpi="90.000000"
       inkscape:export-ydpi="90.000000" />
    <path
       style="fill:#007000;fill-opacity:1.0000000;fill-rule:evenodd;stroke:none;stroke-width:1.0000000px;stroke-linecap:butt;stroke-linejoin:miter;stroke-opacity:1.0000000"
       d="M 229.86483,487.26860 L 166.37856,483.58824 L 170.97902,556.27541 L 179.25983,556.27541 L 172.81920,487.26860 L 224.34428,493.70923 L 229.86483,487.26860 z "
       id="path1324"
       inkscape:export-filename="/home/thelusiv/pics/vdrift/bug.png"
       inkscape:export-xdpi="90.000000"
       inkscape:export-ydpi="90.000000" />
    <path
       style="fill:#00ac00;fill-opacity:1.0000000;fill-rule:evenodd;stroke:none;stroke-width:1.0000000px;stroke-linecap:butt;stroke-linejoin:miter;stroke-opacity:1.0000000"
       d="M 370.46226,358.42536 C 291.08876,393.55789 197.78313,495.44652 192.57831,544.89230 C 187.37349,594.33809 192.57831,624.26580 192.57831,624.26580 C 192.57831,624.26580 238.13867,607.14932 277.15663,592.78654 C 341.03522,569.27238 368.34117,508.14572 384.25008,473.33958 C 399.64128,439.66612 408.42045,379.70468 408.42045,379.70468 C 408.42045,379.70468 459.78535,361.04131 441.56848,337.61962 C 423.35162,314.19794 397.72218,309.94029 391.37401,318.27295 C 381.09264,331.76837 378.65060,344.50676 374.74699,352.31399 C 370.84337,360.12122 371.76346,361.02777 370.46226,358.42536 z "
       id="path1308"
       sodipodi:nodetypes="cscsscsssc"
       inkscape:export-filename="/home/thelusiv/pics/vdrift/bug.png"
       inkscape:export-xdpi="90.000000"
       inkscape:export-ydpi="90.000000" />
    <path
       style="fill:#007000;fill-opacity:1.0000000;fill-rule:evenodd;stroke:none;stroke-width:1.0000000px;stroke-linecap:butt;stroke-linejoin:miter;stroke-opacity:1.0000000"
       d="M 349.47662,515.75312 L 376.15925,561.75765 L 377.07934,616.04301 L 369.71862,623.40373 L 371.55880,564.51793 L 343.95608,517.59330 L 349.47662,515.75312 z "
       id="path1320"
       inkscape:export-filename="/home/thelusiv/pics/vdrift/bug.png"
       inkscape:export-xdpi="90.000000"
       inkscape:export-ydpi="90.000000" />
    <path
       style="fill:#007000;fill-opacity:1.0000000;fill-rule:evenodd;stroke:none;stroke-width:1.0000000px;stroke-linecap:butt;stroke-linejoin:miter;stroke-opacity:1.0000000"
       d="M 388.27829,425.78038 L 442.56365,442.34201 L 450.84447,496.62737 L 443.48374,499.38764 L 437.04310,446.02238 L 388.27829,430.38083 L 388.27829,425.78038 z "
       id="path1314"
       inkscape:export-filename="/home/thelusiv/pics/vdrift/bug.png"
       inkscape:export-xdpi="90.000000"
       inkscape:export-ydpi="90.000000" />
    <path
       style="fill:#007000;fill-opacity:1.0000000;fill-rule:evenodd;stroke:none;stroke-width:1.0000000px;stroke-linecap:butt;stroke-linejoin:miter;stroke-opacity:1.0000000"
       d="M 377.77619,474.54519 L 419.18027,491.10683 L 434.82181,540.79173 L 428.38118,541.71182 L 415.49991,494.78719 L 375.01592,480.98583 L 377.77619,474.54519 z "
       id="path1318"
       inkscape:export-filename="/home/thelusiv/pics/vdrift/bug.png"
       inkscape:export-xdpi="90.000000"
       inkscape:export-ydpi="90.000000" />
    <path
       style="fill:#00d3c7;fill-opacity:0.74576271;fill-rule:evenodd;stroke:none;stroke-width:1.0000000px;stroke-linecap:butt;stroke-linejoin:miter;stroke-opacity:0.72316384"
       d="M 157.08835,592.67456 C 150.76052,517.15539 203.91432,462.11601 227.96009,437.79628 C 252.00586,413.47655 279.41136,390.73403 316.55330,374.75780 C 348.45377,361.03613 376.14775,357.67667 376.14775,357.67667 C 376.14775,357.67667 386.61776,387.35412 382.01376,417.31327 C 376.54379,452.90756 352.39746,515.70638 324.60144,549.74948 C 270.57479,615.91847 201.96133,642.03380 198.16464,636.91386 C 236.46651,486.98946 348.77416,396.48008 348.77416,396.48008 C 348.77416,396.48008 274.09865,465.15476 231.06937,508.67428 C 188.04010,552.19380 157.08835,591.39457 157.08835,592.67456 z "
       id="path1306"
       sodipodi:nodetypes="csscssccsc"
       inkscape:export-filename="/home/thelusiv/pics/vdrift/bug.png"
       inkscape:export-xdpi="90.000000"
       inkscape:export-ydpi="90.000000" />
    <path
       style="fill:none;fill-opacity:0.75000000;fill-rule:evenodd;stroke:#009200;stroke-width:3.4000000;stroke-linecap:butt;stroke-linejoin:miter;stroke-opacity:1.0000000;stroke-miterlimit:4.0000000;stroke-dasharray:none"
       d="M 396.55911,320.89003 C 394.18709,318.14103 395.13412,308.74943 393.79884,303.40831 C 391.73755,295.16314 392.87875,281.79069 392.87875,273.04531 C 392.87875,264.52691 395.72959,254.08568 393.79884,246.36268 C 392.43431,240.90455 399.15873,233.80272 401.15957,229.80105 C 404.28894,223.54230 410.10102,219.41460 415.88102,215.07960 C 421.10446,211.16201 423.87226,209.86147 428.76229,208.63896 C 433.46757,207.46264 437.35541,209.25516 441.64356,211.39923"
       id="path1310"
       inkscape:export-filename="/home/thelusiv/pics/vdrift/bug.png"
       inkscape:export-xdpi="90.000000"
       inkscape:export-ydpi="90.000000" />
    <path
       style="fill:none;fill-opacity:0.75000000;fill-rule:evenodd;stroke:#009200;stroke-width:3.4000000;stroke-linecap:butt;stroke-linejoin:miter;stroke-opacity:1.0000000;stroke-miterlimit:4.0000000;stroke-dasharray:none"
       d="M 418.64129,330.09094 C 424.66601,328.58476 424.37106,318.84063 428.76229,314.44940 C 429.73215,313.47954 429.98907,311.99583 430.60247,310.76904 C 435.22636,301.52126 447.39499,295.66278 452.68465,286.84668 C 455.16291,282.71624 459.40867,278.28247 461.88555,275.80559 C 466.63960,271.05154 470.35647,268.34981 475.68692,265.68459 C 479.97968,263.53821 485.03323,263.11799 489.48828,262.00423 C 494.44822,260.76424 496.46189,258.68713 502.36955,260.16405 C 504.75969,260.76158 504.29487,261.12671 506.04991,262.00423"
       id="path1312"
       inkscape:export-filename="/home/thelusiv/pics/vdrift/bug.png"
       inkscape:export-xdpi="90.000000"
       inkscape:export-ydpi="90.000000" />
    <path
       sodipodi:type="arc"
       style="fill:#000000;fill-opacity:1.0000000;stroke:none;stroke-opacity:1.0000000"
       id="path2052"
       sodipodi:cx="432.90271"
       sodipodi:cy="335.15143"
       sodipodi:rx="3.2203176"
       sodipodi:ry="4.1404085"
       d="M 436.12303 335.15143 A 3.2203176 4.1404085 0 1 1  429.68239,335.15143 A 3.2203176 4.1404085 0 1 1  436.12303 335.15143 z"
       inkscape:export-filename="/home/thelusiv/pics/vdrift/bug.png"
       inkscape:export-xdpi="90.000000"
       inkscape:export-ydpi="90.000000" />
  </g>
</svg>
